<svg width="100" height="100" viewBox="0 0 100 100" fill="none" xmlns="http://www.w3.org/2000/svg">
<path d="M61.2082 72.0416C61.5945 71.6561 61.901 71.1983 62.11 70.6942C62.3191 70.1902 62.4268 69.6498 62.4268 69.1041C62.4268 68.5584 62.3191 68.0181 62.11 67.514C61.901 67.01 61.5945 66.5521 61.2082 66.1666L45.0416 50L61.2082 33.8333C61.9873 33.0542 62.425 31.9976 62.425 30.8958C62.425 29.794 61.9873 28.7374 61.2082 27.9583C60.4292 27.1792 59.3725 26.7415 58.2707 26.7415C57.169 26.7415 56.1123 27.1792 55.3332 27.9583L36.2082 47.0833C35.822 47.4688 35.5155 47.9266 35.3064 48.4307C35.0973 48.9347 34.9897 49.4751 34.9897 50.0208C34.9897 50.5665 35.0973 51.1068 35.3064 51.6109C35.5155 52.1149 35.822 52.5728 36.2082 52.9583L55.3332 72.0833C56.9166 73.6666 59.5832 73.6666 61.2082 72.0416Z" fill="#061F60"/>
</svg>
