<?xml version="1.0" encoding="utf-8"?>
<!-- Generator: Adobe Illustrator 25.2.1, SVG Export Plug-In . SVG Version: 6.00 Build 0)  -->
<svg version="1.1" id="Layer_1" xmlns="http://www.w3.org/2000/svg" xmlns:xlink="http://www.w3.org/1999/xlink" x="0px" y="0px"
	 viewBox="0 0 1920 1080" style="enable-background:new 0 0 1920 1080;" xml:space="preserve">
<style type="text/css">
	.st0{clip-path:url(#SVGID_2_);fill:#99C21C;}
	.st1{clip-path:url(#SVGID_4_);}
	.st2{fill:#F5A100;}
	.st3{fill:#FFEC00;}
	.st4{fill:#009EE2;}
	.st5{fill:#E5007E;}
	.st6{fill:#E20613;}
	.st7{fill:#356DB5;}
	.st8{fill:#F39F19;}
	.st9{fill:#FFFFFF;stroke:#FFFFFF;stroke-width:2;stroke-miterlimit:10;}
	.st10{fill:#FFFFFF;}
	.st11{fill:none;stroke:#FFFFFF;stroke-width:6;stroke-miterlimit:10;}
	.st12{fill:#3F4155;}
	.st13{fill:#D1475F;}
	.st14{fill:#A5A5A5;}
	.st15{fill:#555555;}
	.st16{fill:#4094A9;}
	.st17{fill:#52B3CD;}
	.st18{fill:#F4D746;}
	.st19{fill:#3580B6;}
</style>
<g>
	<g>
		<g>
			<defs>
				<path id="SVGID_1_" d="M96.22,135.28c-1.99,0-3.49,1.8-3.22,3.77c1.69,12.19,10.48,17.27,20.52,17.27
					c5.9,0,10.04-0.77,13.48-1.89c1.82-0.59,3.73,0.48,4.17,2.35l0.37,1.56c0.39,1.62-0.5,3.29-2.08,3.84
					c-3.99,1.4-9.78,2.67-17.45,2.67c-18.68,0-29.84-12.28-29.84-30.58c0-18.31,10.79-32.71,28.46-32.71
					c19.8,0,25.06,17.43,25.06,28.56c0,0.75-0.02,1.45-0.07,2.08c-0.11,1.71-1.53,3.05-3.27,3.05L96.22,135.28L96.22,135.28z
					 M121.58,127.37c1.97,0,3.51-1.73,3.24-3.66c-0.88-6.6-4.69-14.25-15.08-14.25c-9.25,0-14.18,7.06-16.09,13.81
					c-0.59,2.06,1.01,4.1,3.16,4.1H121.58z M160.25,130.77h0.24c1.51-2.13,3.64-4.76,5.39-6.88l16.81-19.77
					c0.61-0.72,1.53-1.14,2.48-1.14h4.25c2.85,0,4.32,3.42,2.37,5.48l-16.4,17.45c-1.07,1.16-1.18,2.92-0.24,4.19l21.16,28.32
					c1.6,2.15,0.07,5.22-2.61,5.22h-5.24c-1.05,0-2.04-0.5-2.65-1.36l-17.58-24.44c-1.21-1.69-3.68-1.82-5.06-0.29l-2.1,2.32
					c-0.55,0.59-0.83,1.38-0.83,2.17v18.31c0,1.8-1.47,3.27-3.27,3.27h-4.38c-1.8,0-3.27-1.47-3.27-3.27V77.85
					c0-1.8,1.47-3.27,3.27-3.27h4.38c1.8,0,3.27,1.47,3.27,3.27v52.9h0.02V130.77z M209.25,160.36v-45.75c0-1.8-1.47-3.27-3.27-3.27
					h-1.99c-1.8,0-3.27-1.47-3.27-3.27v-1.89c0-1.8,1.47-3.27,3.27-3.27h5.26v-2.87c0-8.53,1.89-16.29,7.02-21.18
					c4.14-4.01,9.65-5.63,14.8-5.63c2.46,0,4.71,0.35,6.58,0.83c1.62,0.42,2.63,2.06,2.32,3.7l-0.37,2.08
					c-0.33,1.82-2.08,2.98-3.88,2.61c-1.1-0.22-2.35-0.35-3.77-0.35c-9.4,0-11.77,8.26-11.77,17.54l0,0c0,1.8,1.47,3.27,3.27,3.27
					h8.16c1.8,0,3.27,1.47,3.27,3.27v1.89c0,1.8-1.47,3.27-3.27,3.27h-8.16c-1.8,0-3.27,1.47-3.27,3.27v45.75
					c0,1.8-1.47,3.27-3.27,3.27h-4.38C210.72,163.59,209.25,162.14,209.25,160.36z M255.61,130.77h0.24
					c1.51-2.13,3.64-4.76,5.39-6.88l16.81-19.77c0.61-0.72,1.53-1.14,2.48-1.14h4.25c2.85,0,4.32,3.42,2.37,5.48l-16.4,17.45
					c-1.07,1.16-1.18,2.92-0.24,4.19l21.16,28.32c1.6,2.15,0.07,5.22-2.61,5.22h-5.24c-1.05,0-2.04-0.5-2.65-1.36l-17.58-24.44
					c-1.21-1.69-3.68-1.82-5.06-0.29l-2.1,2.32c-0.55,0.59-0.83,1.38-0.83,2.17v18.31c0,1.8-1.47,3.27-3.27,3.27h-4.38
					c-1.8,0-3.27-1.47-3.27-3.27V77.85c0-1.8,1.47-3.27,3.27-3.27h4.38c1.8,0,3.27,1.47,3.27,3.27v52.9h0.02V130.77z M342.25,163.59
					c-1.67,0-3.05-1.25-3.24-2.89l-0.55-4.76h-0.37c-3.38,4.76-9.91,9.03-18.55,9.03c-12.28,0-18.55-8.64-18.55-17.43
					c0-14.67,13.04-22.69,36.48-22.56v-1.25c0-5.02-1.38-14.03-13.79-14.03c-4.36,0-8.86,1.05-12.65,2.78
					c-1.73,0.79-3.77-0.11-4.41-1.91l-0.37-1.1c-0.53-1.53,0.13-3.22,1.58-3.97c4.8-2.46,11.01-3.97,17.47-3.97
					c18.55,0,23.06,12.65,23.06,24.82v22.69c0,3.81,0.13,7.54,0.48,10.9c0.2,1.95-1.27,3.64-3.22,3.64L342.25,163.59L342.25,163.59z
					 M337.71,135.9c0-1.82-1.49-3.31-3.31-3.27c-11.09,0.22-22.38,2.96-22.38,13.66c0,7.15,4.76,10.52,10.39,10.52
					c7.89,0,12.91-5.02,14.67-10.15c0.37-1.12,0.64-2.39,0.64-3.51V135.9z M396.73,160.36v-15.67c0-1.8-1.47-3.27-3.27-3.27h-31.33
					c-1.8,0-3.27-1.47-3.27-3.27v-2.98c0-0.66,0.2-1.32,0.59-1.86l34.79-49.79c0.61-0.88,1.6-1.38,2.67-1.38h6.95
					c1.8,0,3.27,1.47,3.27,3.27v44.11c0,1.8,1.47,3.27,3.27,3.27h4.89c1.8,0,3.27,1.47,3.27,3.27v2.13c0,1.8-1.47,3.27-3.27,3.27
					h-4.89c-1.8,0-3.27,1.47-3.27,3.27v15.67c0,1.8-1.47,3.27-3.27,3.27H400C398.2,163.59,396.73,162.14,396.73,160.36z
					 M393.48,132.76c1.8,0,3.27-1.47,3.27-3.27v-23.94c0-4.25,0.13-8.53,0.37-12.78h-0.37c-2.48,4.71-4.47,8.2-6.69,11.9
					c-0.04,0.09-0.11,0.15-0.15,0.24l-19.84,27.58v0.24h23.41V132.76z M425.95,142.91c0-10.28,6.14-17.54,16.16-21.81l-0.13-0.37
					c-9.03-4.25-12.91-11.27-12.91-18.31c0-12.91,10.9-21.68,25.19-21.68c15.78,0,23.68,9.91,23.68,20.06
					c0,6.88-3.38,14.29-13.42,19.05v0.37c10.15,4.01,16.42,11.16,16.42,21.05c0,14.16-12.17,23.68-27.69,23.68
					C436.23,164.97,425.95,154.82,425.95,142.91z M469.8,142.41c0-9.6-6.49-14.38-16.95-17.52c-0.64-0.2-1.34-0.2-1.95,0.02
					c-8.9,2.89-13.68,8.99-13.68,16.49c-0.37,8.26,5.9,15.54,16.29,15.54C463.39,156.94,469.8,150.8,469.8,142.41z M439.46,101.7
					c0,7.85,5.68,12.19,14.49,14.75c0.68,0.2,1.4,0.18,2.06-0.07c6.51-2.5,11.4-7.39,11.4-14.42c0-6.51-3.88-13.28-13.79-13.28
					C444.48,88.65,439.46,94.66,439.46,101.7z M537.71,86.64c0,1.73-1.34,3.18-3.07,3.24c-1.6,0.07-3.35,0.22-5.2,0.53
					c-17.3,2.87-26.44,15.54-28.32,28.96h0.37c3.88-5.13,10.65-9.4,19.69-9.4c14.4,0,24.55,10.39,24.55,26.31
					c0,14.91-10.15,28.7-27.07,28.7c-17.43,0-28.83-13.53-28.83-34.73c0-16.05,5.77-28.7,13.79-36.72
					c6.77-6.64,15.78-10.79,26.07-12.04c1.67-0.26,3.2-0.42,4.58-0.5c1.86-0.13,3.44,1.38,3.44,3.24L537.71,86.64L537.71,86.64z
					 M534.58,136.93c0-11.66-6.64-18.68-16.79-18.68c-6.64,0-12.78,4.14-15.78,10.02c-0.75,1.25-1.25,2.87-1.25,4.89
					c0.24,13.42,6.4,23.3,17.91,23.3C528.18,156.44,534.58,148.57,534.58,136.93z M556.87,154.51c0.64-1.82,2.67-2.67,4.43-1.86
					c3.73,1.71,9.19,3.44,14.89,3.44c14.16,0,18.55-9.03,18.41-15.78c-0.13-11.4-10.39-16.29-21.05-16.29h-2.89
					c-1.8,0-3.27-1.47-3.27-3.27V119c0-1.8,1.47-3.27,3.27-3.27h2.89c8.02,0,18.17-4.14,18.17-13.79c0-6.51-4.14-12.28-14.29-12.28
					c-4.87,0-9.58,1.6-13.11,3.46c-1.73,0.9-3.86,0.02-4.52-1.82l-0.66-1.82c-0.55-1.51,0.09-3.18,1.49-3.97
					c4.58-2.56,11.58-4.76,18.92-4.76c16.05,0,23.3,9.51,23.3,19.42c0,8.4-5.02,15.54-15.04,19.18v0.24
					c10.02,1.99,18.17,9.51,18.17,20.94c0,13.04-10.15,24.44-29.7,24.44c-7.5,0-14.25-1.93-18.63-4.08
					c-1.49-0.72-2.17-2.46-1.62-4.01L556.87,154.51z"/>
			</defs>
			<clipPath id="SVGID_2_">
				<use xlink:href="#SVGID_1_"  style="overflow:visible;"/>
			</clipPath>
			<rect x="166.7" y="-15.76" class="st0" width="473.22" height="311.28"/>
		</g>
	</g>
	<g>
		<g>
			<defs>
				<path id="SVGID_3_" d="M96.22,135.28c-1.99,0-3.49,1.8-3.22,3.77c1.69,12.19,10.48,17.27,20.52,17.27
					c5.9,0,10.04-0.77,13.48-1.89c1.82-0.59,3.73,0.48,4.17,2.35l0.37,1.56c0.39,1.62-0.5,3.29-2.08,3.84
					c-3.99,1.4-9.78,2.67-17.45,2.67c-18.68,0-29.84-12.28-29.84-30.58c0-18.31,10.79-32.71,28.46-32.71
					c19.8,0,25.06,17.43,25.06,28.56c0,0.75-0.02,1.45-0.07,2.08c-0.11,1.71-1.53,3.05-3.27,3.05L96.22,135.28L96.22,135.28z
					 M121.58,127.37c1.97,0,3.51-1.73,3.24-3.66c-0.88-6.6-4.69-14.25-15.08-14.25c-9.25,0-14.18,7.06-16.09,13.81
					c-0.59,2.06,1.01,4.1,3.16,4.1H121.58z M160.25,130.77h0.24c1.51-2.13,3.64-4.76,5.39-6.88l16.81-19.77
					c0.61-0.72,1.53-1.14,2.48-1.14h4.25c2.85,0,4.32,3.42,2.37,5.48l-16.4,17.45c-1.07,1.16-1.18,2.92-0.24,4.19l21.16,28.32
					c1.6,2.15,0.07,5.22-2.61,5.22h-5.24c-1.05,0-2.04-0.5-2.65-1.36l-17.58-24.44c-1.21-1.69-3.68-1.82-5.06-0.29l-2.1,2.32
					c-0.55,0.59-0.83,1.38-0.83,2.17v18.31c0,1.8-1.47,3.27-3.27,3.27h-4.38c-1.8,0-3.27-1.47-3.27-3.27V77.85
					c0-1.8,1.47-3.27,3.27-3.27h4.38c1.8,0,3.27,1.47,3.27,3.27v52.9h0.02V130.77z M209.25,160.36v-45.75c0-1.8-1.47-3.27-3.27-3.27
					h-1.99c-1.8,0-3.27-1.47-3.27-3.27v-1.89c0-1.8,1.47-3.27,3.27-3.27h5.26v-2.87c0-8.53,1.89-16.29,7.02-21.18
					c4.14-4.01,9.65-5.63,14.8-5.63c2.46,0,4.71,0.35,6.58,0.83c1.62,0.42,2.63,2.06,2.32,3.7l-0.37,2.08
					c-0.33,1.82-2.08,2.98-3.88,2.61c-1.1-0.22-2.35-0.35-3.77-0.35c-9.4,0-11.77,8.26-11.77,17.54l0,0c0,1.8,1.47,3.27,3.27,3.27
					h8.16c1.8,0,3.27,1.47,3.27,3.27v1.89c0,1.8-1.47,3.27-3.27,3.27h-8.16c-1.8,0-3.27,1.47-3.27,3.27v45.75
					c0,1.8-1.47,3.27-3.27,3.27h-4.38C210.72,163.59,209.25,162.14,209.25,160.36z M255.61,130.77h0.24
					c1.51-2.13,3.64-4.76,5.39-6.88l16.81-19.77c0.61-0.72,1.53-1.14,2.48-1.14h4.25c2.85,0,4.32,3.42,2.37,5.48l-16.4,17.45
					c-1.07,1.16-1.18,2.92-0.24,4.19l21.16,28.32c1.6,2.15,0.07,5.22-2.61,5.22h-5.24c-1.05,0-2.04-0.5-2.65-1.36l-17.58-24.44
					c-1.21-1.69-3.68-1.82-5.06-0.29l-2.1,2.32c-0.55,0.59-0.83,1.38-0.83,2.17v18.31c0,1.8-1.47,3.27-3.27,3.27h-4.38
					c-1.8,0-3.27-1.47-3.27-3.27V77.85c0-1.8,1.47-3.27,3.27-3.27h4.38c1.8,0,3.27,1.47,3.27,3.27v52.9h0.02V130.77z M342.25,163.59
					c-1.67,0-3.05-1.25-3.24-2.89l-0.55-4.76h-0.37c-3.38,4.76-9.91,9.03-18.55,9.03c-12.28,0-18.55-8.64-18.55-17.43
					c0-14.67,13.04-22.69,36.48-22.56v-1.25c0-5.02-1.38-14.03-13.79-14.03c-4.36,0-8.86,1.05-12.65,2.78
					c-1.73,0.79-3.77-0.11-4.41-1.91l-0.37-1.1c-0.53-1.53,0.13-3.22,1.58-3.97c4.8-2.46,11.01-3.97,17.47-3.97
					c18.55,0,23.06,12.65,23.06,24.82v22.69c0,3.81,0.13,7.54,0.48,10.9c0.2,1.95-1.27,3.64-3.22,3.64L342.25,163.59L342.25,163.59z
					 M337.71,135.9c0-1.82-1.49-3.31-3.31-3.27c-11.09,0.22-22.38,2.96-22.38,13.66c0,7.15,4.76,10.52,10.39,10.52
					c7.89,0,12.91-5.02,14.67-10.15c0.37-1.12,0.64-2.39,0.64-3.51V135.9z M396.73,160.36v-15.67c0-1.8-1.47-3.27-3.27-3.27h-31.33
					c-1.8,0-3.27-1.47-3.27-3.27v-2.98c0-0.66,0.2-1.32,0.59-1.86l34.79-49.79c0.61-0.88,1.6-1.38,2.67-1.38h6.95
					c1.8,0,3.27,1.47,3.27,3.27v44.11c0,1.8,1.47,3.27,3.27,3.27h4.89c1.8,0,3.27,1.47,3.27,3.27v2.13c0,1.8-1.47,3.27-3.27,3.27
					h-4.89c-1.8,0-3.27,1.47-3.27,3.27v15.67c0,1.8-1.47,3.27-3.27,3.27H400C398.2,163.59,396.73,162.14,396.73,160.36z
					 M393.48,132.76c1.8,0,3.27-1.47,3.27-3.27v-23.94c0-4.25,0.13-8.53,0.37-12.78h-0.37c-2.48,4.71-4.47,8.2-6.69,11.9
					c-0.04,0.09-0.11,0.15-0.15,0.24l-19.84,27.58v0.24h23.41V132.76z M425.95,142.91c0-10.28,6.14-17.54,16.16-21.81l-0.13-0.37
					c-9.03-4.25-12.91-11.27-12.91-18.31c0-12.91,10.9-21.68,25.19-21.68c15.78,0,23.68,9.91,23.68,20.06
					c0,6.88-3.38,14.29-13.42,19.05v0.37c10.15,4.01,16.42,11.16,16.42,21.05c0,14.16-12.17,23.68-27.69,23.68
					C436.23,164.97,425.95,154.82,425.95,142.91z M469.8,142.41c0-9.6-6.49-14.38-16.95-17.52c-0.64-0.2-1.34-0.2-1.95,0.02
					c-8.9,2.89-13.68,8.99-13.68,16.49c-0.37,8.26,5.9,15.54,16.29,15.54C463.39,156.94,469.8,150.8,469.8,142.41z M439.46,101.7
					c0,7.85,5.68,12.19,14.49,14.75c0.68,0.2,1.4,0.18,2.06-0.07c6.51-2.5,11.4-7.39,11.4-14.42c0-6.51-3.88-13.28-13.79-13.28
					C444.48,88.65,439.46,94.66,439.46,101.7z M537.71,86.64c0,1.73-1.34,3.18-3.07,3.24c-1.6,0.07-3.35,0.22-5.2,0.53
					c-17.3,2.87-26.44,15.54-28.32,28.96h0.37c3.88-5.13,10.65-9.4,19.69-9.4c14.4,0,24.55,10.39,24.55,26.31
					c0,14.91-10.15,28.7-27.07,28.7c-17.43,0-28.83-13.53-28.83-34.73c0-16.05,5.77-28.7,13.79-36.72
					c6.77-6.64,15.78-10.79,26.07-12.04c1.67-0.26,3.2-0.42,4.58-0.5c1.86-0.13,3.44,1.38,3.44,3.24L537.71,86.64L537.71,86.64z
					 M534.58,136.93c0-11.66-6.64-18.68-16.79-18.68c-6.64,0-12.78,4.14-15.78,10.02c-0.75,1.25-1.25,2.87-1.25,4.89
					c0.24,13.42,6.4,23.3,17.91,23.3C528.18,156.44,534.58,148.57,534.58,136.93z M556.87,154.51c0.64-1.82,2.67-2.67,4.43-1.86
					c3.73,1.71,9.19,3.44,14.89,3.44c14.16,0,18.55-9.03,18.41-15.78c-0.13-11.4-10.39-16.29-21.05-16.29h-2.89
					c-1.8,0-3.27-1.47-3.27-3.27V119c0-1.8,1.47-3.27,3.27-3.27h2.89c8.02,0,18.17-4.14,18.17-13.79c0-6.51-4.14-12.28-14.29-12.28
					c-4.87,0-9.58,1.6-13.11,3.46c-1.73,0.9-3.86,0.02-4.52-1.82l-0.66-1.82c-0.55-1.51,0.09-3.18,1.49-3.97
					c4.58-2.56,11.58-4.76,18.92-4.76c16.05,0,23.3,9.51,23.3,19.42c0,8.4-5.02,15.54-15.04,19.18v0.24
					c10.02,1.99,18.17,9.51,18.17,20.94c0,13.04-10.15,24.44-29.7,24.44c-7.5,0-14.25-1.93-18.63-4.08
					c-1.49-0.72-2.17-2.46-1.62-4.01L556.87,154.51z"/>
			</defs>
			<clipPath id="SVGID_4_">
				<use xlink:href="#SVGID_3_"  style="overflow:visible;"/>
			</clipPath>
			<g class="st1">
				<path class="st2" d="M289.09,239.28c0,71.25-62.94,129.01-140.59,129.01S7.91,310.53,7.91,239.28S70.85,110.27,148.5,110.27
					C226.15,110.25,289.09,168.04,289.09,239.28z"/>
				<path class="st3" d="M257.52,1.82c0,71.25-62.94,129.01-140.59,129.01S-23.65,73.07-23.65,1.82s62.94-129.01,140.59-129.01
					C194.58-127.22,257.52-69.43,257.52,1.82z"/>
				<path class="st3" d="M631.06,239.28c0,71.25-62.94,129.01-140.59,129.01s-140.59-57.77-140.59-129.01
					s62.94-129.01,140.59-129.01C568.12,110.25,631.06,168.04,631.06,239.28z"/>
				<path class="st4" d="M410.91,92.75c0,56.63-45.69,102.53-102.05,102.53S206.84,149.38,206.84,92.75S252.52-9.78,308.86-9.78
					C365.23-9.76,410.91,36.15,410.91,92.75z"/>
				<path class="st5" d="M763.62,34.57c0,71.25-62.94,129.01-140.59,129.01S482.45,105.82,482.45,34.57S545.38-94.44,623.03-94.44
					C700.66-94.46,763.62-36.68,763.62,34.57z"/>
				<path class="st6" d="M529.29,10.08c0,71.25-62.94,129.01-140.59,129.01S248.12,81.33,248.12,10.08s62.94-129.01,140.59-129.01
					C466.38-118.93,529.29-61.16,529.29,10.08z"/>
			</g>
		</g>
	</g>
</g>
<rect x="114.21" y="268.2" class="st7" width="164.68" height="164.68"/>
<rect x="116.02" y="451.34" class="st8" width="164.68" height="164.68"/>
<rect x="116.02" y="628.76" class="st8" width="164.68" height="164.68"/>
<g>
	<path class="st9" d="M238.87,392.76h-81.61c-0.78,0-1.41-0.63-1.41-1.41v-81.61c0-0.78,0.63-1.41,1.41-1.41h81.61
		c0.78,0,1.41,0.63,1.41,1.41v81.61C240.28,392.13,239.65,392.76,238.87,392.76z"/>
	<g>
		<rect x="159.5" y="311.68" class="st7" width="38.86" height="38.86"/>
		<rect x="198.36" y="350.54" class="st7" width="38.86" height="38.86"/>
	</g>
</g>
<circle class="st10" cx="157.5" cy="752.85" r="13.02"/>
<path class="st10" d="M184.96,757.99c0,2.11-0.39,4.98-0.7,7h13.89c0.26-2.15,0.48-4.78,0.48-7c0-29.95-24.28-54.24-54.24-54.24
	v13.67C166.8,717.42,184.96,735.58,184.96,757.99z"/>
<path class="st10" d="M216.78,754.18c0,3.65-0.42,7.3-0.97,10.8h24.53c0.46-3.72,0.58-6.97,0.58-10.8
	c0-51.79-43.86-93.78-96.74-93.78v23.64C183.72,684.05,216.78,715.45,216.78,754.18z"/>
<g>
	<g>
		<path class="st10" d="M230.1,535.93c2.11-8.29,2.93-17.62,1.75-27.92c-0.17-1.45-0.85-2.72-2.12-2.88
			c-30.3-3.66-32.47-16.25-38.45-16.57l0.13,47.37H230.1z"/>
		<path class="st10" d="M153.58,535.93c8.51,30.69,31.61,47.38,37.48,47.38c0.15,0,0.31-0.01,0.48-0.03l-0.13-47.34H153.58z"/>
	</g>
	<g>
		<path class="st11" d="M229.74,505.25c1.26,0.15,1.95,1.42,2.11,2.87c5.54,48.37-33.3,75.02-40.65,75.02
			c-7.43,0-42.57-26.84-40.4-75.04c0.07-1.44,0.79-2.72,2.04-2.92c29.37-4.52,31.07-16.51,38.37-16.45
			C197.35,488.73,199.17,501.56,229.74,505.25z"/>
	</g>
</g>
<g>
	<rect x="355.38" y="266.74" class="st12" width="168.15" height="168.15"/>
	<path class="st13" d="M487.6,431.21h-96.29c-16.67,0-30.19-13.52-30.19-30.19V300.61c0-16.67,13.52-30.19,30.19-30.19h96.29
		c16.67,0,30.19,13.52,30.19,30.19v100.41C517.79,417.7,504.27,431.21,487.6,431.21z"/>
	<g>
		<path class="st14" d="M466,296.07h-53.1c-3.28,0-5.94-2.66-5.94-5.93l0,0c0-3.28,2.66-5.94,5.94-5.94H466
			c3.28,0,5.93,2.66,5.93,5.94l0,0C471.94,293.41,469.28,296.07,466,296.07z"/>
		<path class="st15" d="M473.09,304.7h-67.26c-3.28,0-5.94-2.66-5.94-5.93l0,0c0-3.28,2.66-5.93,5.94-5.93h67.26
			c3.28,0,5.93,2.66,5.93,5.93l0,0C479.02,302.04,476.36,304.7,473.09,304.7z"/>
		<polygon class="st16" points="462.86,419.74 420.08,419.74 405.37,304.7 473.54,304.7 		"/>
		<polygon class="st17" points="463.88,411.55 418.7,411.55 406.97,317.04 471.94,317.04 		"/>
		<polygon class="st18" points="467.2,372.28 413.86,372.75 408.98,333.42 470.84,333.47 		"/>
		
			<ellipse transform="matrix(0.7071 -0.7071 0.7071 0.7071 -112.9406 423.7176)" class="st19" cx="455" cy="348.19" rx="8.79" ry="8.79"/>
	</g>
</g>
</svg>
