<svg width="220" height="51" viewBox="0 0 220 51" fill="none" xmlns="http://www.w3.org/2000/svg">
<rect width="220" height="51" rx="8" fill="#C4C4C4"/>
<path d="M27.514 28.896H23.444V24.408H27.514V28.896ZM27.514 22.142H23.444V17.236H20.562V31.206H30.396V17.236H27.514V22.142ZM38.756 23.176H35.808V15.652H32.904V35.892H35.808V25.596H38.756V23.176ZM50.7883 31.294V28.28H56.9263V25.948H45.1783V23.682H56.4643V16.928H42.2743V19.238H53.6043V21.416H42.2963V28.28H47.8843V31.294H40.1843V33.67H58.5323V31.294H50.7883ZM61.3466 17.698V20.052H67.9686C67.4406 24.54 64.9326 27.752 60.2246 30.172L61.8526 32.394C68.5846 28.984 70.8946 23.77 70.8946 17.698H61.3466ZM79.1226 23.352H76.2846V15.608H73.3806V35.848H76.2846V25.75H79.1226V23.352ZM81.7828 17.72V20.03H88.5368C88.1188 24.518 85.8748 27.686 80.7048 30.172L82.2228 32.46C89.4168 28.984 91.5068 23.924 91.5068 17.72H81.7828ZM94.6088 15.608V35.87H97.5348V15.608H94.6088Z" fill="black"/>
</svg>
