<svg width="209" height="55" viewBox="0 0 209 55" fill="none" xmlns="http://www.w3.org/2000/svg">
<rect width="209" height="55" rx="8" transform="matrix(-1 8.74228e-08 8.74228e-08 1 209 0)" fill="#777777"/>
<path d="M73.4482 27.068L77.6062 27.068L77.6062 29.422L73.4482 29.422L73.4482 33.558L71.0942 33.558L71.0942 29.422L66.9362 29.422L66.9362 27.068L71.0942 27.068L71.0942 22.888L73.4482 22.888L73.4482 27.068ZM89.0909 21.744L95.3609 21.744L95.3609 19.434L86.1869 19.434L86.1869 33.052L87.8369 33.052C91.5329 33.052 93.9529 32.964 96.6809 32.458L96.3949 30.104C94.0849 30.5 91.9949 30.654 89.0909 30.676L89.0909 21.744ZM99.3429 17.63L99.3429 24.626L94.3929 24.626L94.3929 26.958L99.3429 26.958L99.3429 37.958L102.247 37.958L102.247 17.63L99.3429 17.63ZM110.297 24.318L118.965 24.318L118.965 27.156L110.297 27.156L110.297 24.318ZM116.083 33.184L116.083 29.466L121.825 29.466L121.825 18.884L118.965 18.884L118.965 22.03L110.297 22.03L110.297 18.884L107.415 18.884L107.415 29.466L113.179 29.466L113.179 33.184L105.479 33.184L105.479 35.538L123.827 35.538L123.827 33.184L116.083 33.184ZM126.839 19.72L126.839 22.03L133.593 22.03C133.175 26.518 130.931 29.686 125.761 32.172L127.279 34.46C134.473 30.984 136.563 25.924 136.563 19.72L126.839 19.72ZM139.665 17.608L139.665 37.87L142.591 37.87L142.591 17.608L139.665 17.608Z" fill="white"/>
</svg>
