<svg width="160" height="45" viewBox="0 0 160 45" fill="none" xmlns="http://www.w3.org/2000/svg">
<rect width="160" height="45" rx="8" fill="#C4C4C4"/>
<path d="M48.0374 25.896H43.9674V21.408H48.0374V25.896ZM48.0374 19.142H43.9674V14.236H41.0854V28.206H50.9194V14.236H48.0374V19.142ZM59.2794 20.176H56.3314V12.652H53.4274V32.892H56.3314V22.596H59.2794V20.176ZM71.3117 28.294V25.28H77.4497V22.948H65.7017V20.682H76.9877V13.928H62.7977V16.238H74.1277V18.416H62.8197V25.28H68.4077V28.294H60.7077V30.67H79.0557V28.294H71.3117ZM81.87 14.698V17.052H88.492C87.964 21.54 85.456 24.752 80.748 27.172L82.376 29.394C89.108 25.984 91.418 20.77 91.418 14.698H81.87ZM99.646 20.352H96.808V12.608H93.904V32.848H96.808V22.75H99.646V20.352ZM102.306 14.72V17.03H109.06C108.642 21.518 106.398 24.686 101.228 27.172L102.746 29.46C109.94 25.984 112.03 20.924 112.03 14.72H102.306ZM115.132 12.608V32.87H118.058V12.608H115.132Z" fill="black"/>
</svg>
