<svg width="100" height="100" viewBox="0 0 100 100" fill="none" xmlns="http://www.w3.org/2000/svg">
<path d="M38.7918 27.9584C38.4055 28.3439 38.099 28.8017 37.89 29.3058C37.6809 29.8098 37.5732 30.3502 37.5732 30.8959C37.5732 31.4416 37.6809 31.9819 37.89 32.486C38.099 32.99 38.4055 33.4479 38.7918 33.8334L54.9584 50L38.7918 66.1667C38.0127 66.9458 37.575 68.0024 37.575 69.1042C37.575 70.206 38.0127 71.2626 38.7918 72.0417C39.5708 72.8208 40.6275 73.2585 41.7293 73.2585C42.831 73.2585 43.8877 72.8208 44.6668 72.0417L63.7918 52.9167C64.178 52.5312 64.4845 52.0734 64.6936 51.5693C64.9027 51.0653 65.0103 50.5249 65.0103 49.9792C65.0103 49.4335 64.9027 48.8932 64.6936 48.3891C64.4845 47.8851 64.178 47.4272 63.7918 47.0417L44.6668 27.9167C43.0834 26.3334 40.4168 26.3334 38.7918 27.9584Z" fill="#061F60"/>
</svg>
