<svg xmlns="http://www.w3.org/2000/svg" viewBox="0 0 24 24"><defs><style>.cls-1{fill:#29ef41;fill-rule:evenodd;}</style></defs><g id="Layer_2" data-name="Layer 2"><g id="Layer_1-2" data-name="Layer 1"><path class="cls-1" d="M24,24V17H23V16a3,3,0,0,0-3-3H7v4H1V10H0V24H1V22H23v2ZM1,21H23V18H1Zm7-4H22V16a2,2,0,0,0-2-2H8ZM4,12a2,2,0,1,1-2,2A2,2,0,0,1,4,12Zm0,1a1,1,0,1,1-1,1A1,1,0,0,1,4,13ZM12,0C8.83,0,6,2.11,6,5A4.41,4.41,0,0,0,7,7.81,7.9,7.9,0,0,1,6,11a14.74,14.74,0,0,0,4-1.27,8.66,8.66,0,0,0,2,.25C15.59,10,18,7.56,18,5,18,2.1,15.15,0,12,0Zm0,1c2.63,0,5,1.7,5,4,0,1.92-1.9,4-4.95,4a8.27,8.27,0,0,1-2.2-.32,6.79,6.79,0,0,1-2.14.91A5.12,5.12,0,0,0,8,7.44,3.53,3.53,0,0,1,7,5C7,2.8,9.24,1,12,1Zm-.89,6H8.82V6.51l1.25-1.82H8.91V4h2.16v.53L9.85,6.32h1.26Zm4.05,0H12V6.33L13.71,4v0H12V3h3v.72L13.4,6.06h1.76Z"/></g></g></svg>