<svg xmlns="http://www.w3.org/2000/svg" viewBox="0 0 24 16"><defs><style>.cls-1{fill:#bc1fc1;fill-rule:evenodd;}</style></defs><g id="Layer_2" data-name="Layer 2"><g id="Layer_1-2" data-name="Layer 1"><path class="cls-1" d="M2,4.44H22a.9.9,0,0,1,.86.65L24,9l0,.13a.51.51,0,0,1-.33.48h0A.52.52,0,0,1,23,9.38L21.89,7.31l-.33,8a.74.74,0,0,1-.75.72h0a.75.75,0,0,1-.74-.7c-.07-.86-.25-2.93-.31-3.75a.54.54,0,0,0-.54-.54.57.57,0,0,0-.54.54c-.05.82-.23,2.89-.3,3.75a.75.75,0,0,1-.75.7h0a.76.76,0,0,1-.75-.72c-.08-2.08-.43-8.74-.43-8.74H14.78s-.35,6.66-.44,8.74a.74.74,0,0,1-.74.72h0a.75.75,0,0,1-.74-.7c-.07-.86-.25-2.93-.31-3.75A.55.55,0,0,0,12,11h0a.55.55,0,0,0-.53.54c-.06.82-.24,2.89-.31,3.75a.75.75,0,0,1-.74.7h0a.74.74,0,0,1-.75-.72c-.09-2.08-.44-8.74-.44-8.74H7.55s-.35,6.66-.43,8.74a.76.76,0,0,1-.75.72h0a.75.75,0,0,1-.75-.7c-.07-.86-.25-2.93-.3-3.75A.57.57,0,0,0,4.78,11a.54.54,0,0,0-.54.54c-.06.82-.24,2.89-.31,3.75a.75.75,0,0,1-.74.7h0a.76.76,0,0,1-.75-.72l-.33-8L1,9.38a.52.52,0,0,1-.64.24h0A.51.51,0,0,1,0,9.13L0,9,1.13,5.09A.88.88,0,0,1,2,4.44ZM5,0A2,2,0,1,1,3,2,2,2,0,0,1,5,0ZM19,0a2,2,0,1,0,2,2A2,2,0,0,0,19,0ZM12,0a2,2,0,1,1-2,2A2,2,0,0,1,12,0Z"/></g></g></svg>