<svg xmlns="http://www.w3.org/2000/svg" viewBox="0 0 64 64"><defs><style>.cls-1{fill:#aaa;fill-rule:evenodd;}.cls-2{fill:#af03ff;}</style></defs><g id="Layer_2" data-name="Layer 2"><g id="Layer_1-2" data-name="Layer 1"><path class="cls-1" d="M64,32A32,32,0,1,1,32,0,32,32,0,0,1,64,32ZM19.5,13A10.5,10.5,0,1,0,30,23.5,10.5,10.5,0,0,0,19.5,13ZM56,23.5A10.5,10.5,0,1,1,45.5,13,10.5,10.5,0,0,1,56,23.5Z"/><circle class="cls-2" cx="19.5" cy="21.5" r="7.5"/><path class="cls-2" d="M53,21.5A7.5,7.5,0,1,1,45.5,14,7.5,7.5,0,0,1,53,21.5Z"/></g></g></svg>